<svg width="280" height="279" viewBox="0 0 280 279" fill="none" xmlns="http://www.w3.org/2000/svg">
<g filter="url(#filter0_d_3_109)">
<rect x="4.59821" width="271" height="271" rx="40" fill="url(#paint0_linear_3_109)"/>
</g>
<path d="M233.895 112.797C233.196 111.525 232.236 110.416 231.078 109.541C229.92 108.666 228.591 108.045 227.176 107.719C219.54 105.816 211.606 105.418 203.817 106.547C206.786 91.7813 204.52 80.2188 202.254 73.3438C201.44 70.7625 199.69 68.5787 197.349 67.2202C195.008 65.8617 192.244 65.4266 189.598 66C181.957 67.6919 174.698 70.7916 168.192 75.1406C163.279 64.1581 155.707 54.5725 146.161 47.25C144.262 45.842 141.962 45.0818 139.598 45.0818C137.235 45.0818 134.934 45.842 133.036 47.25C123.489 54.5725 115.917 64.1581 111.004 75.1406C104.498 70.7916 97.2391 67.6919 89.5982 66C86.9529 65.4266 84.1887 65.8617 81.8475 67.2202C79.5063 68.5787 77.7568 70.7625 76.942 73.3438C74.6763 80.2188 72.4107 91.7813 75.3795 106.547C67.5907 105.418 59.6567 105.816 52.0201 107.719C50.6059 108.045 49.2765 108.666 48.1187 109.541C46.9609 110.416 46.0009 111.525 45.3013 112.797C44.571 114.047 44.098 115.431 43.9101 116.866C43.7223 118.302 43.8234 119.76 44.2076 121.156C46.942 130.844 55.2232 149.203 80.3013 163.656C105.379 178.109 127.645 178.188 139.598 178.188C151.551 178.188 173.817 178.188 198.895 163.656C223.973 149.125 232.254 130.844 234.989 121.156C235.373 119.76 235.474 118.302 235.286 116.866C235.098 115.431 234.625 114.047 233.895 112.797ZM191.551 75.1406C191.933 75.0665 192.329 75.1376 192.661 75.3398C192.994 75.5421 193.239 75.8611 193.348 76.2344C195.614 83.0313 197.723 95.1406 193.114 110.766C193.025 110.99 192.972 111.228 192.958 111.469C191.034 117.458 188.467 123.221 185.301 128.656C179.961 137.829 173.152 146.063 165.145 153.031C170.926 142.797 175.536 128.969 175.536 111C175.583 101.897 174.266 92.8381 171.629 84.125C177.606 79.8351 184.379 76.7807 191.551 75.1406ZM138.661 54.75C138.931 54.5472 139.26 54.4375 139.598 54.4375C139.936 54.4375 140.265 54.5472 140.536 54.75C148.27 60.5313 166.161 77.4844 166.161 111C166.161 146.391 146.473 163.187 139.598 167.953C132.879 163.187 113.036 146.156 113.036 111C113.036 77.4844 130.926 60.5313 138.661 54.75ZM85.8482 76.2344C85.9578 75.8611 86.2027 75.5421 86.535 75.3398C86.8673 75.1376 87.2632 75.0665 87.6451 75.1406C94.8171 76.7807 101.59 79.8351 107.567 84.125C104.93 92.8381 103.614 101.897 103.661 111C103.661 128.969 108.27 142.797 114.051 153.031C106.045 146.063 99.2354 137.829 93.8951 128.656C90.7119 123.23 88.144 117.465 86.2388 111.469C86.2246 111.228 86.1718 110.99 86.0826 110.766C81.4732 95.1406 83.5826 83.0313 85.8482 76.2344ZM53.2701 118.656C53.1641 118.268 53.1916 117.855 53.3482 117.484C53.4486 117.31 53.5835 117.157 53.7446 117.036C53.9058 116.916 54.0899 116.829 54.2857 116.781C59.442 115.453 67.567 114.438 78.0357 116.469C80.0315 122.343 82.6231 127.997 85.7701 133.344C93.5504 146.794 104.192 158.369 116.942 167.25C105.683 165.304 94.8617 161.361 84.9888 155.609C62.7232 142.719 55.5357 126.938 53.2701 118.656ZM225.926 118.656C223.661 126.938 216.473 142.719 194.208 155.609C184.335 161.361 173.514 165.304 162.254 167.25C175.004 158.369 185.646 146.794 193.426 133.344C196.573 127.997 199.165 122.343 201.161 116.469C211.629 114.438 219.754 115.453 224.911 116.781C225.107 116.829 225.291 116.916 225.452 117.036C225.613 117.157 225.748 117.31 225.848 117.484C226.005 117.855 226.032 118.268 225.926 118.656Z" fill="white"/>
<rect width="18.75" height="140.625" transform="matrix(1.19249e-08 -1 -1 -1.19249e-08 209.911 198.5)" stroke="white" stroke-width="9" stroke-linejoin="round"/>
<rect width="18.75" height="105.804" transform="matrix(1.19249e-08 -1 -1 -1.19249e-08 192.277 217.25)" stroke="white" stroke-width="9" stroke-linejoin="round"/>
<rect width="18.75" height="52.9018" transform="matrix(1.19249e-08 -1 -1 -1.19249e-08 166.049 236)" stroke="white" stroke-width="9" stroke-linejoin="round"/>
<circle cx="139.598" cy="50.0625" r="14.0625" fill="white"/>
<circle cx="139.598" cy="175.062" r="14.0625" fill="white"/>
<defs>
<filter id="filter0_d_3_109" x="0.598206" y="0" width="279" height="279" filterUnits="userSpaceOnUse" color-interpolation-filters="sRGB">
<feFlood flood-opacity="0" result="BackgroundImageFix"/>
<feColorMatrix in="SourceAlpha" type="matrix" values="0 0 0 0 0 0 0 0 0 0 0 0 0 0 0 0 0 0 127 0" result="hardAlpha"/>
<feOffset dy="4"/>
<feGaussianBlur stdDeviation="2"/>
<feComposite in2="hardAlpha" operator="out"/>
<feColorMatrix type="matrix" values="0 0 0 0 0 0 0 0 0 0 0 0 0 0 0 0 0 0 0.25 0"/>
<feBlend mode="normal" in2="BackgroundImageFix" result="effect1_dropShadow_3_109"/>
<feBlend mode="normal" in="SourceGraphic" in2="effect1_dropShadow_3_109" result="shape"/>
</filter>
<linearGradient id="paint0_linear_3_109" x1="140.098" y1="0" x2="140.098" y2="271" gradientUnits="userSpaceOnUse">
<stop stop-color="#B55A69"/>
<stop offset="0.619792" stop-color="#97B9A8"/>
</linearGradient>
</defs>
</svg>
